<?xml version="1.0" standalone="no"?>
<!DOCTYPE svg PUBLIC "-//W3C//DTD SVG 20010904//EN"
 "http://www.w3.org/TR/2001/REC-SVG-20010904/DTD/svg10.dtd">
<svg version="1.0" xmlns="http://www.w3.org/2000/svg"
 width="8000.000000pt" height="8430.000000pt" viewBox="0 0 8000.000000 8430.000000"
 preserveAspectRatio="xMidYMid meet">

<g transform="translate(0.000000,8430.000000) scale(0.100000,-0.100000)"
fill="#000000" stroke="none">
<path d="M26352 80808 c-127 -12 -335 -67 -467 -123 -742 -317 -1169 -1101
-989 -1816 76 -300 247 -551 499 -731 92 -66 288 -160 399 -192 289 -83 618
-72 924 29 577 193 1014 687 1128 1275 27 140 25 390 -4 527 -123 573 -577
972 -1176 1032 -123 12 -179 12 -314 -1z"/>
<path d="M7915 79719 c-858 -115 -1525 -905 -1454 -1722 36 -423 264 -790 622
-1001 484 -286 1122 -252 1632 88 390 260 650 644 731 1081 23 121 25 372 5
485 -19 110 -74 273 -126 374 -175 344 -505 591 -900 676 -115 25 -393 35
-510 19z"/>
<path d="M26846 77519 c-3 -8 -46 -162 -95 -344 -150 -553 -824 -3029 -966
-3550 -73 -269 -217 -798 -320 -1175 -102 -377 -187 -686 -188 -687 -1 -1
-259 77 -572 173 -630 193 -1201 367 -1665 509 -316 96 -1207 369 -2175 665
-821 251 -1948 596 -2360 722 -443 135 -626 191 -1155 353 -228 70 -500 153
-605 185 -1037 317 -3213 982 -4120 1260 -308 94 -742 227 -965 295 -223 68
-517 158 -655 200 -137 42 -299 92 -360 110 -240 74 -519 159 -915 280 -228
70 -445 136 -483 148 -37 11 -69 18 -71 16 -2 -2 9 -215 25 -474 15 -258 49
-812 74 -1230 25 -418 61 -1023 80 -1345 20 -322 51 -846 70 -1165 19 -319 53
-881 75 -1250 22 -368 54 -893 70 -1165 36 -598 84 -1407 145 -2420 25 -415
61 -1016 80 -1335 19 -319 51 -843 70 -1165 19 -322 51 -848 70 -1170 19 -322
51 -846 70 -1165 19 -319 64 -1070 99 -1670 36 -599 68 -1132 72 -1182 3 -51
2 -93 -2 -93 -14 0 -3207 -68 -4479 -95 -638 -14 -1195 -25 -1238 -25 -45 0
-77 -4 -75 -9 1 -6 123 -164 269 -353 299 -385 1663 -2146 2730 -3523 931
-1202 3027 -3907 3148 -4063 52 -67 98 -121 102 -120 5 2 1508 1189 3341 2638
1833 1449 3958 3130 4723 3734 764 605 2000 1582 2745 2171 745 589 2658 2101
4250 3360 1592 1259 2990 2363 3105 2455 116 92 460 364 765 605 3241 2562
3575 2827 3574 2839 -1 11 -275 364 -1949 2511 -605 775 -2064 2648 -3343
4290 -895 1148 -972 1246 -983 1259 -5 6 -10 3 -13 -5z"/>
<path d="M21410 76443 c0 -36 21 -387 75 -1228 13 -209 45 -724 71 -1145 28
-448 52 -768 58 -772 16 -11 3377 -1131 3381 -1127 3 3 164 583 404 1459 37
135 135 487 216 782 82 296 146 540 144 542 -2 2 -305 110 -674 239 -368 130
-1082 380 -1585 557 -1651 580 -2078 730 -2084 730 -3 0 -6 -17 -6 -37z"/>
<path d="M30014 66619 c-2029 -1613 -4519 -3591 -5534 -4398 -1015 -806 -1987
-1578 -2160 -1716 -173 -138 -1231 -978 -2350 -1867 -1119 -889 -2192 -1742
-2385 -1895 -192 -153 -521 -414 -730 -580 -209 -166 -639 -507 -955 -759
-316 -251 -1000 -795 -1520 -1208 -1277 -1014 -1719 -1365 -2085 -1656 -170
-136 -643 -511 -1050 -834 -407 -324 -741 -592 -743 -596 -3 -7 597 -781 636
-822 16 -17 36 -2 352 249 184 146 682 541 1105 878 859 682 3553 2822 4110
3265 198 157 779 619 1290 1025 1163 924 3950 3139 5135 4080 492 391 1314
1044 1825 1450 512 406 1322 1050 1800 1430 479 380 971 771 1095 870 317 252
5643 4484 6115 4858 215 171 391 311 393 313 3 1 -614 798 -648 837 -3 4
-1666 -1312 -3696 -2924z m-15137 -12256 c-9 -9 -20 -13 -24 -9 -4 4 -1 11 7
16 25 16 35 11 17 -7z"/>
<path d="M33338 67052 c-790 -603 -1436 -1098 -1435 -1099 1 -1 109 21 241 48
131 27 389 78 574 114 186 36 347 67 359 70 13 3 338 374 839 957 449 524 828
965 842 981 14 15 24 27 21 27 -2 0 -651 -494 -1441 -1098z"/>
<path d="M45955 67359 c-836 -17 -1799 -57 -2604 -109 -168 -11 -306 -22 -309
-24 -11 -11 -76 -543 -116 -946 -166 -1665 -208 -3614 -121 -5560 154 -3426
714 -6888 1636 -10115 1537 -5373 4050 -10190 7498 -14370 947 -1148 1961
-2242 3076 -3319 2855 -2756 6243 -5190 10060 -7228 598 -319 1639 -846 2077
-1051 l97 -45 30 51 c16 29 200 351 408 717 3339 5851 5472 10010 6144 11980
54 158 142 450 137 454 -83 67 -847 535 -2113 1296 -1161 698 -4083 2440
-4098 2443 -4 1 -50 -115 -101 -258 -489 -1362 -1098 -2887 -1599 -4005 -564
-1259 -1109 -2278 -1511 -2828 l-46 -62 -242 162 c-1839 1227 -3876 3038
-5622 4998 -3009 3377 -5326 7301 -6804 11520 -172 491 -354 1049 -491 1505
-713 2379 -1180 4831 -1396 7335 -8 96 -17 199 -21 229 -5 49 -4 53 13 46 41
-16 185 -25 620 -35 858 -20 1357 -40 1958 -80 3238 -218 6816 -890 10565
-1985 2116 -618 4295 -1374 6505 -2255 640 -256 1391 -566 1414 -584 77 -61
-318 -2555 -735 -4636 -184 -920 -378 -1782 -500 -2223 -34 -124 -35 -129 -17
-143 10 -9 333 -172 718 -363 1743 -867 2195 -1100 2969 -1533 1192 -667 2102
-1279 2574 -1733 l102 -97 11 28 c32 87 227 920 389 1662 715 3295 1320 6794
1634 9462 168 1418 275 2893 276 3776 l0 142 -297 160 c-513 276 -780 414
-1388 717 -3771 1876 -8166 3508 -12591 4674 -4981 1313 -9976 2052 -14939
2211 -919 29 -2337 38 -3250 19z"/>
<path d="M35880 66443 c-52 -8 -259 -39 -460 -69 -1247 -187 -2648 -445 -3963
-728 l-208 -45 -222 -179 c-122 -98 -460 -371 -752 -606 -291 -235 -683 -551
-870 -701 -187 -151 -462 -372 -610 -492 -297 -239 -1406 -1133 -1825 -1471
-146 -117 -364 -293 -485 -391 -121 -97 -281 -226 -355 -285 -74 -60 -147
-119 -161 -131 -15 -13 -116 -94 -224 -182 -305 -244 -474 -380 -1110 -893
-324 -261 -663 -535 -754 -608 -92 -74 -251 -203 -356 -287 -104 -84 -229
-185 -278 -224 -48 -40 -93 -71 -100 -69 -15 4 -156 -103 -157 -119 0 -9 -233
-199 -1455 -1183 -622 -501 -855 -689 -1050 -847 -217 -175 -2107 -1698 -2740
-2208 -177 -143 -446 -359 -596 -481 -728 -586 -1584 -1276 -1666 -1342 -52
-41 -93 -82 -93 -91 0 -22 44 -403 76 -656 24 -194 52 -376 59 -383 2 -2 113
59 247 136 2953 1689 5963 3155 8603 4192 1485 583 2766 1009 4058 1350 170
45 319 85 332 90 28 11 22 43 65 -390 460 -4620 1522 -9233 3127 -13585 2202
-5969 5444 -11564 9622 -16605 2710 -3269 5908 -6361 8876 -8580 478 -357
1061 -765 1227 -859 l58 -33 -100 -121 c-435 -535 -1130 -1239 -1880 -1908
-906 -806 -2016 -1690 -2895 -2304 -198 -139 -409 -273 -441 -281 -18 -5 -72
32 -261 177 -1462 1120 -2866 2297 -4208 3529 -1206 1106 -2501 2397 -3621
3610 -4990 5404 -9052 11756 -11941 18670 -1296 3102 -2362 6396 -2938 9080
-25 118 -48 223 -51 233 -6 20 -9 20 -184 -36 -878 -277 -2644 -1245 -5150
-2819 -521 -327 -1093 -689 -1102 -697 -11 -9 230 -946 408 -1591 1291 -4669
3109 -9145 5474 -13480 2296 -4207 5096 -8244 8354 -12045 3603 -4203 7774
-8110 12171 -11400 781 -585 1386 -1019 2295 -1650 530 -368 616 -428 655
-465 l30 -28 180 114 c3807 2417 7655 5543 11389 9254 1535 1526 2867 2951
4055 4339 537 628 1098 1325 1088 1354 -1 5 -88 54 -192 109 -2519 1322 -4712
2666 -6855 4201 -4091 2930 -7625 6352 -10522 10187 -1897 2512 -3517 5184
-4875 8040 -2626 5523 -4213 11653 -4658 17990 -37 529 -70 1189 -96 1875 -17
465 -23 1992 -10 2490 23 902 65 1679 126 2350 8 88 15 168 15 178 0 19 6 19
-120 0z"/>
<path d="M6634 64694 c3 -21 24 -273 47 -559 22 -286 102 -1285 178 -2220
l136 -1700 1425 -3 c783 -1 1427 1 1431 5 4 5 -5 166 -21 358 -16 193 -50 604
-75 915 -25 311 -57 698 -70 860 -13 162 -43 527 -66 810 -22 283 -44 518 -48
522 -3 3 -235 88 -516 188 -280 100 -933 333 -1450 517 -517 185 -948 338
-959 341 -16 4 -18 0 -12 -34z"/>
<path d="M2630 62070 c-315 -44 -617 -172 -855 -363 -311 -250 -534 -615 -602
-987 -21 -118 -24 -382 -4 -490 97 -542 516 -955 1071 -1057 129 -23 400 -23
527 0 569 106 1049 484 1273 1004 83 194 122 381 122 593 0 279 -68 508 -218
733 -185 278 -483 473 -832 547 -111 24 -376 35 -482 20z"/>
<path d="M13685 51555 c-748 -549 -1462 -1072 -1587 -1163 -125 -91 -226 -167
-224 -169 3 -3 362 172 2206 1072 459 224 886 432 948 462 102 48 113 56 109
76 -3 12 -22 157 -42 322 -20 165 -39 322 -43 348 l-7 48 -1360 -996z"/>
</g>
</svg>
